<svg width="520" height="520" viewBox="0 0 520 520" fill="none" xmlns="http://www.w3.org/2000/svg">
<ellipse cx="211.144" cy="208.378" rx="39.8337" ry="39.8345" transform="rotate(90 211.144 208.378)" fill="#FF8E37"/>
<ellipse cx="113.432" cy="208.379" rx="39.8337" ry="39.8345" transform="rotate(90 113.432 208.379)" fill="#FFBB87"/>
<ellipse cx="211.144" cy="108.911" rx="39.8337" ry="39.8345" transform="rotate(90 211.144 108.911)" fill="#FFBB87"/>
<ellipse cx="308.856" cy="108.911" rx="39.8337" ry="39.8345" transform="rotate(90 308.856 108.911)" fill="#FF8E37"/>
<ellipse cx="308.856" cy="208.378" rx="39.8337" ry="39.8345" transform="rotate(90 308.856 208.378)" fill="#FF8E37"/>
<ellipse cx="406.567" cy="208.378" rx="39.8337" ry="39.8345" transform="rotate(90 406.567 208.378)" fill="#FF6F00"/>
<ellipse cx="211.144" cy="311.62" rx="39.8337" ry="39.8345" transform="rotate(90 211.144 311.62)" fill="#FF8E37"/>
<ellipse cx="113.432" cy="311.623" rx="39.8337" ry="39.8345" transform="rotate(90 113.432 311.623)" fill="#FF8E37"/>
<ellipse cx="308.856" cy="311.62" rx="39.8337" ry="39.8345" transform="rotate(90 308.856 311.62)" fill="#FF6F00"/>
<ellipse cx="211.144" cy="411.09" rx="39.8337" ry="39.8345" transform="rotate(90 211.144 411.09)" fill="#FF6F00"/>
<ellipse cx="308.856" cy="411.09" rx="39.8337" ry="39.8345" transform="rotate(90 308.856 411.09)" fill="#FF6F00"/>
<ellipse cx="406.567" cy="411.09" rx="39.8337" ry="39.8345" transform="rotate(90 406.567 411.09)" fill="#FF6F00"/>
<ellipse cx="406.567" cy="311.62" rx="39.8337" ry="39.8345" transform="rotate(90 406.567 311.62)" fill="#FF6F00"/>
<rect x="205.726" y="403.182" width="108.547" height="15.8131" fill="#FF6F00"/>
<rect x="298.02" y="303.715" width="108.547" height="15.8131" fill="#FF6F00"/>
<rect x="300.95" y="222.818" width="108.547" height="15.8131" transform="rotate(-90 300.95 222.818)" fill="#FF8E37"/>
<rect x="203.238" y="311.622" width="108.547" height="15.8131" transform="rotate(-90 203.238 311.622)" fill="#FF8E37"/>
<rect x="102.596" y="302.541" width="108.547" height="15.8131" fill="#FF8E37"/>
<rect x="398.66" y="418.996" width="108.547" height="15.8131" transform="rotate(-90 398.66 418.996)" fill="#FF6F00"/>
<rect x="398.66" y="302.485" width="108.547" height="15.8131" transform="rotate(-90 398.66 302.485)" fill="#FF6F00"/>
</svg>
